# xmcd
#
# Track frame offsets:
# 150
# 19323
# 37644
# 56326
# 78436
# 92917
# 115578
# 138525
# 157384
# 174938
# 197461
# 223730
# 240521
# 260577
# 283393
# 300744
# 323068
#
# Disc length: 4577 seconds
#
#
# Revision: 2
# Processed by: cddbd v1.5.1PL2 Copyright (c) Steve Scherf et al.
# Submitted via: Easy CD Ripper
#
DISCID=eb11df11
DTITLE=小刚 - 男人.海洋
DYEAR=2006
DGENRE=Pop
TTITLE0=异世界
TTITLE1=男人.海洋
TTITLE2=爱的告别式
TTITLE3=还原
TTITLE4=失眠的夜
TTITLE5=最爱你的时候
TTITLE6=春天的花开
TTITLE7=爱如日升日落
TTITLE8=随风飞
TTITLE9=只要你还在
TTITLE10=黄昏
TTITLE11=忘记
TTITLE12=记事本
TTITLE13=我在身边
TTITLE14=出卖
TTITLE15=我的心太乱
TTITLE16=花香
EXTD=周传雄 - 男人 海洋 -专辑
EXTT0=
EXTT1=
EXTT2=
EXTT3=
EXTT4=
EXTT5=
EXTT6=
EXTT7=
EXTT8=
EXTT9=
EXTT10=
EXTT11=
EXTT12=
EXTT13=
EXTT14=
EXTT15=
EXTT16=
PLAYORDER=
